<mxfile host="app.diagrams.net" modified="2021-03-02T08:18:57.291Z" agent="5.0 (Windows NT 10.0; Win64; x64) AppleWebKit/537.36 (KHTML, like Gecko) Chrome/88.0.4324.182 Safari/537.36 Edg/88.0.705.81" etag="qb_wvTG5MuCqSF1ApZuE" version="14.4.3" type="github">
  <diagram id="Vwi1EXBxK2TPIhp4Lb0i" name="Page-1">
    <mxGraphModel dx="884" dy="734" grid="1" gridSize="10" guides="1" tooltips="1" connect="1" arrows="1" fold="1" page="1" pageScale="1" pageWidth="1654" pageHeight="1169" math="0" shadow="0">
      <root>
        <mxCell id="0" />
        <mxCell id="1" parent="0" />
        <mxCell id="GnKGV7IZCZq4mpfxTUD4-72" value="" style="endArrow=none;html=1;" parent="1" edge="1">
          <mxGeometry width="50" height="50" relative="1" as="geometry">
            <mxPoint x="1360" y="230" as="sourcePoint" />
            <mxPoint x="1420" y="230" as="targetPoint" />
          </mxGeometry>
        </mxCell>
        <mxCell id="GnKGV7IZCZq4mpfxTUD4-73" value="" style="endArrow=none;html=1;" parent="1" edge="1">
          <mxGeometry width="50" height="50" relative="1" as="geometry">
            <mxPoint x="1345" y="240" as="sourcePoint" />
            <mxPoint x="1405" y="240" as="targetPoint" />
          </mxGeometry>
        </mxCell>
        <mxCell id="GnKGV7IZCZq4mpfxTUD4-74" value="" style="endArrow=none;html=1;exitX=1;exitY=0.25;exitDx=0;exitDy=0;jumpStyle=arc;rounded=0;" parent="1" source="GnKGV7IZCZq4mpfxTUD4-110" edge="1">
          <mxGeometry width="50" height="50" relative="1" as="geometry">
            <mxPoint x="860" y="340" as="sourcePoint" />
            <mxPoint x="1361.3326710668102" y="230" as="targetPoint" />
            <Array as="points">
              <mxPoint x="880" y="470" />
              <mxPoint x="880" y="230" />
            </Array>
          </mxGeometry>
        </mxCell>
        <mxCell id="GnKGV7IZCZq4mpfxTUD4-75" value="" style="endArrow=none;html=1;exitX=0.25;exitY=0;exitDx=0;exitDy=0;rounded=0;" parent="1" source="GnKGV7IZCZq4mpfxTUD4-113" edge="1">
          <mxGeometry width="50" height="50" relative="1" as="geometry">
            <mxPoint x="995" y="460" as="sourcePoint" />
            <mxPoint x="1345" y="240" as="targetPoint" />
            <Array as="points">
              <mxPoint x="1000" y="240" />
            </Array>
          </mxGeometry>
        </mxCell>
        <mxCell id="GnKGV7IZCZq4mpfxTUD4-76" style="edgeStyle=orthogonalEdgeStyle;rounded=0;orthogonalLoop=1;jettySize=auto;html=1;exitX=0.5;exitY=1;exitDx=0;exitDy=0;entryX=0.5;entryY=1;entryDx=0;entryDy=0;" parent="1" source="GnKGV7IZCZq4mpfxTUD4-124" target="GnKGV7IZCZq4mpfxTUD4-110" edge="1">
          <mxGeometry relative="1" as="geometry">
            <Array as="points">
              <mxPoint x="1480" y="700" />
              <mxPoint x="820" y="700" />
            </Array>
          </mxGeometry>
        </mxCell>
        <mxCell id="GnKGV7IZCZq4mpfxTUD4-77" value="LO" style="edgeLabel;html=1;align=center;verticalAlign=middle;resizable=0;points=[];" parent="GnKGV7IZCZq4mpfxTUD4-76" vertex="1" connectable="0">
          <mxGeometry x="-0.9669" y="-1" relative="1" as="geometry">
            <mxPoint as="offset" />
          </mxGeometry>
        </mxCell>
        <mxCell id="GnKGV7IZCZq4mpfxTUD4-78" style="edgeStyle=orthogonalEdgeStyle;rounded=0;orthogonalLoop=1;jettySize=auto;html=1;exitX=0.25;exitY=1;exitDx=0;exitDy=0;entryX=0.75;entryY=1;entryDx=0;entryDy=0;" parent="1" source="GnKGV7IZCZq4mpfxTUD4-124" target="GnKGV7IZCZq4mpfxTUD4-110" edge="1">
          <mxGeometry relative="1" as="geometry">
            <Array as="points">
              <mxPoint x="1465" y="690" />
              <mxPoint x="840" y="690" />
            </Array>
          </mxGeometry>
        </mxCell>
        <mxCell id="GnKGV7IZCZq4mpfxTUD4-79" value="HI" style="edgeLabel;html=1;align=center;verticalAlign=middle;resizable=0;points=[];" parent="GnKGV7IZCZq4mpfxTUD4-78" vertex="1" connectable="0">
          <mxGeometry x="-0.9623" relative="1" as="geometry">
            <mxPoint as="offset" />
          </mxGeometry>
        </mxCell>
        <mxCell id="GnKGV7IZCZq4mpfxTUD4-80" style="edgeStyle=orthogonalEdgeStyle;rounded=0;orthogonalLoop=1;jettySize=auto;html=1;entryX=0.75;entryY=1;entryDx=0;entryDy=0;fillColor=#f8cecc;strokeColor=#b85450;" parent="1" source="GnKGV7IZCZq4mpfxTUD4-130" target="GnKGV7IZCZq4mpfxTUD4-87" edge="1">
          <mxGeometry relative="1" as="geometry">
            <Array as="points">
              <mxPoint x="540" y="680" />
              <mxPoint x="360" y="680" />
            </Array>
            <mxPoint x="520" y="670" as="sourcePoint" />
          </mxGeometry>
        </mxCell>
        <mxCell id="GnKGV7IZCZq4mpfxTUD4-81" style="edgeStyle=orthogonalEdgeStyle;rounded=0;orthogonalLoop=1;jettySize=auto;html=1;entryX=1;entryY=0.75;entryDx=0;entryDy=0;jumpStyle=arc;" parent="1" source="GnKGV7IZCZq4mpfxTUD4-130" target="GnKGV7IZCZq4mpfxTUD4-117" edge="1">
          <mxGeometry relative="1" as="geometry">
            <Array as="points">
              <mxPoint x="620" y="710" />
              <mxPoint x="1290" y="710" />
              <mxPoint x="1290" y="490" />
            </Array>
            <mxPoint x="640" y="690" as="sourcePoint" />
          </mxGeometry>
        </mxCell>
        <mxCell id="GnKGV7IZCZq4mpfxTUD4-82" style="edgeStyle=orthogonalEdgeStyle;rounded=0;orthogonalLoop=1;jettySize=auto;html=1;jumpStyle=arc;" parent="1" target="GnKGV7IZCZq4mpfxTUD4-124" edge="1">
          <mxGeometry relative="1" as="geometry">
            <Array as="points">
              <mxPoint x="1480" y="230" />
            </Array>
            <mxPoint x="1420" y="230" as="sourcePoint" />
          </mxGeometry>
        </mxCell>
        <mxCell id="GnKGV7IZCZq4mpfxTUD4-83" style="edgeStyle=orthogonalEdgeStyle;rounded=0;orthogonalLoop=1;jettySize=auto;html=1;entryX=0.25;entryY=0;entryDx=0;entryDy=0;endFill=1;snapToPoint=0;" parent="1" target="GnKGV7IZCZq4mpfxTUD4-124" edge="1">
          <mxGeometry relative="1" as="geometry">
            <Array as="points">
              <mxPoint x="1465" y="240" />
            </Array>
            <mxPoint x="1405" y="240" as="sourcePoint" />
          </mxGeometry>
        </mxCell>
        <mxCell id="GnKGV7IZCZq4mpfxTUD4-84" value="PipelineController" style="rounded=0;whiteSpace=wrap;html=1;direction=south;" parent="1" vertex="1">
          <mxGeometry x="300" y="740" width="1210" height="40" as="geometry" />
        </mxCell>
        <mxCell id="GnKGV7IZCZq4mpfxTUD4-85" style="edgeStyle=orthogonalEdgeStyle;rounded=0;orthogonalLoop=1;jettySize=auto;html=1;exitX=1;exitY=0.5;exitDx=0;exitDy=0;fillColor=#f8cecc;strokeColor=#b85450;" parent="1" source="GnKGV7IZCZq4mpfxTUD4-87" target="GnKGV7IZCZq4mpfxTUD4-90" edge="1">
          <mxGeometry relative="1" as="geometry" />
        </mxCell>
        <mxCell id="GnKGV7IZCZq4mpfxTUD4-86" style="edgeStyle=orthogonalEdgeStyle;rounded=0;orthogonalLoop=1;jettySize=auto;html=1;entryX=0.25;entryY=1;entryDx=0;entryDy=0;" parent="1" target="GnKGV7IZCZq4mpfxTUD4-87" edge="1">
          <mxGeometry relative="1" as="geometry">
            <mxPoint x="320" y="740" as="sourcePoint" />
          </mxGeometry>
        </mxCell>
        <mxCell id="GnKGV7IZCZq4mpfxTUD4-87" value="PC" style="rounded=0;whiteSpace=wrap;html=1;fillColor=#dae8fc;strokeColor=#6c8ebf;" parent="1" vertex="1">
          <mxGeometry x="300" y="460" width="80" height="40" as="geometry" />
        </mxCell>
        <mxCell id="GnKGV7IZCZq4mpfxTUD4-88" style="edgeStyle=orthogonalEdgeStyle;rounded=0;orthogonalLoop=1;jettySize=auto;html=1;exitX=1;exitY=0.5;exitDx=0;exitDy=0;entryX=0;entryY=0.5;entryDx=0;entryDy=0;fillColor=#f8cecc;strokeColor=#b85450;" parent="1" source="GnKGV7IZCZq4mpfxTUD4-90" edge="1">
          <mxGeometry relative="1" as="geometry">
            <mxPoint x="500" y="480" as="targetPoint" />
          </mxGeometry>
        </mxCell>
        <mxCell id="GnKGV7IZCZq4mpfxTUD4-89" style="edgeStyle=orthogonalEdgeStyle;rounded=0;orthogonalLoop=1;jettySize=auto;html=1;entryX=0.5;entryY=1;entryDx=0;entryDy=0;jumpStyle=arc;" parent="1" target="GnKGV7IZCZq4mpfxTUD4-90" edge="1">
          <mxGeometry relative="1" as="geometry">
            <mxPoint x="440" y="740" as="sourcePoint" />
          </mxGeometry>
        </mxCell>
        <mxCell id="GnKGV7IZCZq4mpfxTUD4-90" value="IF&lt;br&gt;|&lt;br&gt;ID" style="rounded=0;whiteSpace=wrap;html=1;fillColor=#dae8fc;strokeColor=#6c8ebf;" parent="1" vertex="1">
          <mxGeometry x="420" y="300" width="40" height="360" as="geometry" />
        </mxCell>
        <mxCell id="GnKGV7IZCZq4mpfxTUD4-91" style="edgeStyle=orthogonalEdgeStyle;rounded=0;orthogonalLoop=1;jettySize=auto;html=1;exitX=1;exitY=0.25;exitDx=0;exitDy=0;entryX=0;entryY=0.5;entryDx=0;entryDy=0;" parent="1" source="GnKGV7IZCZq4mpfxTUD4-95" target="GnKGV7IZCZq4mpfxTUD4-107" edge="1">
          <mxGeometry relative="1" as="geometry" />
        </mxCell>
        <mxCell id="GnKGV7IZCZq4mpfxTUD4-92" style="edgeStyle=orthogonalEdgeStyle;rounded=0;orthogonalLoop=1;jettySize=auto;html=1;exitX=1;exitY=0.5;exitDx=0;exitDy=0;entryX=-0.03;entryY=0.482;entryDx=0;entryDy=0;entryPerimeter=0;fillColor=#f8cecc;strokeColor=#b85450;" parent="1" source="GnKGV7IZCZq4mpfxTUD4-95" target="GnKGV7IZCZq4mpfxTUD4-110" edge="1">
          <mxGeometry relative="1" as="geometry" />
        </mxCell>
        <mxCell id="GnKGV7IZCZq4mpfxTUD4-93" style="edgeStyle=orthogonalEdgeStyle;rounded=0;orthogonalLoop=1;jettySize=auto;html=1;entryX=0.5;entryY=1;entryDx=0;entryDy=0;jumpStyle=arc;" parent="1" target="GnKGV7IZCZq4mpfxTUD4-95" edge="1">
          <mxGeometry relative="1" as="geometry">
            <mxPoint x="720" y="740" as="sourcePoint" />
          </mxGeometry>
        </mxCell>
        <mxCell id="GnKGV7IZCZq4mpfxTUD4-94" style="edgeStyle=orthogonalEdgeStyle;rounded=0;orthogonalLoop=1;jettySize=auto;html=1;exitX=0.25;exitY=0;exitDx=0;exitDy=0;entryX=0.75;entryY=0;entryDx=0;entryDy=0;" parent="1" source="GnKGV7IZCZq4mpfxTUD4-95" target="GnKGV7IZCZq4mpfxTUD4-130" edge="1">
          <mxGeometry relative="1" as="geometry">
            <Array as="points">
              <mxPoint x="710" y="260" />
              <mxPoint x="620" y="260" />
            </Array>
            <mxPoint x="640" y="260" as="targetPoint" />
          </mxGeometry>
        </mxCell>
        <mxCell id="GnKGV7IZCZq4mpfxTUD4-95" value="ID&lt;br&gt;|&lt;br&gt;EX" style="rounded=0;whiteSpace=wrap;html=1;fillColor=#dae8fc;strokeColor=#6c8ebf;" parent="1" vertex="1">
          <mxGeometry x="700" y="300" width="40" height="360" as="geometry" />
        </mxCell>
        <mxCell id="GnKGV7IZCZq4mpfxTUD4-96" style="edgeStyle=orthogonalEdgeStyle;rounded=0;orthogonalLoop=1;jettySize=auto;html=1;exitX=1;exitY=0.5;exitDx=0;exitDy=0;entryX=0;entryY=0.5;entryDx=0;entryDy=0;fillColor=#f8cecc;strokeColor=#b85450;" parent="1" source="GnKGV7IZCZq4mpfxTUD4-98" target="GnKGV7IZCZq4mpfxTUD4-113" edge="1">
          <mxGeometry relative="1" as="geometry" />
        </mxCell>
        <mxCell id="GnKGV7IZCZq4mpfxTUD4-97" style="edgeStyle=orthogonalEdgeStyle;rounded=0;orthogonalLoop=1;jettySize=auto;html=1;entryX=0.5;entryY=1;entryDx=0;entryDy=0;jumpStyle=arc;" parent="1" target="GnKGV7IZCZq4mpfxTUD4-98" edge="1">
          <mxGeometry relative="1" as="geometry">
            <mxPoint x="920" y="740" as="sourcePoint" />
          </mxGeometry>
        </mxCell>
        <mxCell id="GnKGV7IZCZq4mpfxTUD4-98" value="EX&lt;br&gt;|&lt;br&gt;MEM" style="rounded=0;whiteSpace=wrap;html=1;fillColor=#dae8fc;strokeColor=#6c8ebf;" parent="1" vertex="1">
          <mxGeometry x="900" y="300" width="40" height="360" as="geometry" />
        </mxCell>
        <mxCell id="GnKGV7IZCZq4mpfxTUD4-99" style="edgeStyle=orthogonalEdgeStyle;rounded=0;orthogonalLoop=1;jettySize=auto;html=1;exitX=1;exitY=0.5;exitDx=0;exitDy=0;entryX=0;entryY=0.5;entryDx=0;entryDy=0;" parent="1" source="GnKGV7IZCZq4mpfxTUD4-103" target="GnKGV7IZCZq4mpfxTUD4-117" edge="1">
          <mxGeometry relative="1" as="geometry" />
        </mxCell>
        <mxCell id="GnKGV7IZCZq4mpfxTUD4-100" style="edgeStyle=orthogonalEdgeStyle;rounded=0;orthogonalLoop=1;jettySize=auto;html=1;exitX=1;exitY=0.25;exitDx=0;exitDy=0;entryX=0;entryY=0.5;entryDx=0;entryDy=0;fillColor=#f8cecc;strokeColor=#b85450;" parent="1" source="GnKGV7IZCZq4mpfxTUD4-103" target="GnKGV7IZCZq4mpfxTUD4-115" edge="1">
          <mxGeometry relative="1" as="geometry" />
        </mxCell>
        <mxCell id="GnKGV7IZCZq4mpfxTUD4-101" style="edgeStyle=orthogonalEdgeStyle;rounded=0;orthogonalLoop=1;jettySize=auto;html=1;exitX=1;exitY=0.75;exitDx=0;exitDy=0;entryX=0;entryY=0.5;entryDx=0;entryDy=0;" parent="1" source="GnKGV7IZCZq4mpfxTUD4-103" target="GnKGV7IZCZq4mpfxTUD4-119" edge="1">
          <mxGeometry relative="1" as="geometry" />
        </mxCell>
        <mxCell id="GnKGV7IZCZq4mpfxTUD4-102" style="edgeStyle=orthogonalEdgeStyle;rounded=0;orthogonalLoop=1;jettySize=auto;html=1;entryX=0.5;entryY=1;entryDx=0;entryDy=0;jumpStyle=arc;" parent="1" target="GnKGV7IZCZq4mpfxTUD4-103" edge="1">
          <mxGeometry relative="1" as="geometry">
            <mxPoint x="1120" y="740" as="sourcePoint" />
          </mxGeometry>
        </mxCell>
        <mxCell id="GnKGV7IZCZq4mpfxTUD4-103" value="MEM&lt;br&gt;|&lt;br&gt;WB" style="rounded=0;whiteSpace=wrap;html=1;fillColor=#dae8fc;strokeColor=#6c8ebf;" parent="1" vertex="1">
          <mxGeometry x="1100" y="300" width="40" height="360" as="geometry" />
        </mxCell>
        <mxCell id="GnKGV7IZCZq4mpfxTUD4-104" style="edgeStyle=orthogonalEdgeStyle;rounded=0;orthogonalLoop=1;jettySize=auto;html=1;exitX=1;exitY=0.5;exitDx=0;exitDy=0;entryX=0;entryY=0.5;entryDx=0;entryDy=0;fillColor=#f8cecc;strokeColor=#b85450;" parent="1" target="GnKGV7IZCZq4mpfxTUD4-95" edge="1">
          <mxGeometry relative="1" as="geometry">
            <mxPoint x="660" y="480" as="sourcePoint" />
          </mxGeometry>
        </mxCell>
        <mxCell id="GnKGV7IZCZq4mpfxTUD4-105" style="edgeStyle=orthogonalEdgeStyle;rounded=0;orthogonalLoop=1;jettySize=auto;html=1;exitX=0.5;exitY=1;exitDx=0;exitDy=0;" parent="1" source="GnKGV7IZCZq4mpfxTUD4-130" edge="1">
          <mxGeometry relative="1" as="geometry">
            <mxPoint x="620" y="680" as="sourcePoint" />
            <mxPoint x="580" y="740" as="targetPoint" />
            <Array as="points">
              <mxPoint x="580" y="740" />
            </Array>
          </mxGeometry>
        </mxCell>
        <mxCell id="GnKGV7IZCZq4mpfxTUD4-106" style="edgeStyle=orthogonalEdgeStyle;rounded=0;orthogonalLoop=1;jettySize=auto;html=1;exitX=0.5;exitY=1;exitDx=0;exitDy=0;entryX=0.5;entryY=0;entryDx=0;entryDy=0;" parent="1" source="GnKGV7IZCZq4mpfxTUD4-107" target="GnKGV7IZCZq4mpfxTUD4-110" edge="1">
          <mxGeometry relative="1" as="geometry" />
        </mxCell>
        <mxCell id="GnKGV7IZCZq4mpfxTUD4-107" value="MULT&lt;br&gt;DIV" style="rounded=0;whiteSpace=wrap;html=1;" parent="1" vertex="1">
          <mxGeometry x="780" y="370" width="80" height="40" as="geometry" />
        </mxCell>
        <mxCell id="GnKGV7IZCZq4mpfxTUD4-108" style="edgeStyle=orthogonalEdgeStyle;rounded=0;orthogonalLoop=1;jettySize=auto;html=1;exitX=1;exitY=0.5;exitDx=0;exitDy=0;entryX=0;entryY=0.5;entryDx=0;entryDy=0;fillColor=#f8cecc;strokeColor=#b85450;" parent="1" source="GnKGV7IZCZq4mpfxTUD4-110" target="GnKGV7IZCZq4mpfxTUD4-98" edge="1">
          <mxGeometry relative="1" as="geometry" />
        </mxCell>
        <mxCell id="GnKGV7IZCZq4mpfxTUD4-109" style="edgeStyle=orthogonalEdgeStyle;rounded=0;orthogonalLoop=1;jettySize=auto;html=1;exitX=0.25;exitY=1;exitDx=0;exitDy=0;jumpStyle=arc;" parent="1" source="GnKGV7IZCZq4mpfxTUD4-110" edge="1">
          <mxGeometry relative="1" as="geometry">
            <mxPoint x="800" y="740" as="targetPoint" />
          </mxGeometry>
        </mxCell>
        <mxCell id="GnKGV7IZCZq4mpfxTUD4-110" value="ALU" style="rounded=0;whiteSpace=wrap;html=1;fillColor=#dae8fc;strokeColor=#6c8ebf;" parent="1" vertex="1">
          <mxGeometry x="780" y="460" width="80" height="40" as="geometry" />
        </mxCell>
        <mxCell id="GnKGV7IZCZq4mpfxTUD4-111" style="edgeStyle=orthogonalEdgeStyle;rounded=0;orthogonalLoop=1;jettySize=auto;html=1;exitX=1;exitY=0.5;exitDx=0;exitDy=0;entryX=0;entryY=0.5;entryDx=0;entryDy=0;fillColor=#f8cecc;strokeColor=#b85450;" parent="1" source="GnKGV7IZCZq4mpfxTUD4-113" target="GnKGV7IZCZq4mpfxTUD4-103" edge="1">
          <mxGeometry relative="1" as="geometry" />
        </mxCell>
        <mxCell id="GnKGV7IZCZq4mpfxTUD4-112" style="edgeStyle=orthogonalEdgeStyle;rounded=0;orthogonalLoop=1;jettySize=auto;html=1;exitX=0.5;exitY=1;exitDx=0;exitDy=0;jumpStyle=arc;" parent="1" source="GnKGV7IZCZq4mpfxTUD4-113" edge="1">
          <mxGeometry relative="1" as="geometry">
            <mxPoint x="1020" y="740" as="targetPoint" />
          </mxGeometry>
        </mxCell>
        <mxCell id="GnKGV7IZCZq4mpfxTUD4-113" value="MEM" style="rounded=0;whiteSpace=wrap;html=1;fillColor=#dae8fc;strokeColor=#6c8ebf;" parent="1" vertex="1">
          <mxGeometry x="980" y="460" width="80" height="40" as="geometry" />
        </mxCell>
        <mxCell id="GnKGV7IZCZq4mpfxTUD4-114" style="edgeStyle=orthogonalEdgeStyle;rounded=0;orthogonalLoop=1;jettySize=auto;html=1;exitX=1;exitY=0.5;exitDx=0;exitDy=0;entryX=0;entryY=0.5;entryDx=0;entryDy=0;fillColor=#f8cecc;strokeColor=#b85450;" parent="1" source="GnKGV7IZCZq4mpfxTUD4-115" target="GnKGV7IZCZq4mpfxTUD4-121" edge="1">
          <mxGeometry relative="1" as="geometry" />
        </mxCell>
        <mxCell id="GnKGV7IZCZq4mpfxTUD4-115" value="RegFIle" style="rounded=0;whiteSpace=wrap;html=1;fillColor=#dae8fc;strokeColor=#6c8ebf;" parent="1" vertex="1">
          <mxGeometry x="1180" y="370" width="80" height="40" as="geometry" />
        </mxCell>
        <mxCell id="GnKGV7IZCZq4mpfxTUD4-116" style="edgeStyle=orthogonalEdgeStyle;rounded=0;orthogonalLoop=1;jettySize=auto;html=1;exitX=1;exitY=0.5;exitDx=0;exitDy=0;entryX=0;entryY=0.5;entryDx=0;entryDy=0;" parent="1" source="GnKGV7IZCZq4mpfxTUD4-117" target="GnKGV7IZCZq4mpfxTUD4-123" edge="1">
          <mxGeometry relative="1" as="geometry" />
        </mxCell>
        <mxCell id="GnKGV7IZCZq4mpfxTUD4-117" value="CP0" style="rounded=0;whiteSpace=wrap;html=1;" parent="1" vertex="1">
          <mxGeometry x="1180" y="460" width="80" height="40" as="geometry" />
        </mxCell>
        <mxCell id="GnKGV7IZCZq4mpfxTUD4-118" style="edgeStyle=orthogonalEdgeStyle;rounded=0;orthogonalLoop=1;jettySize=auto;html=1;exitX=1;exitY=0.5;exitDx=0;exitDy=0;entryX=0;entryY=0.5;entryDx=0;entryDy=0;" parent="1" source="GnKGV7IZCZq4mpfxTUD4-119" target="GnKGV7IZCZq4mpfxTUD4-124" edge="1">
          <mxGeometry relative="1" as="geometry" />
        </mxCell>
        <mxCell id="GnKGV7IZCZq4mpfxTUD4-119" value="HILO" style="rounded=0;whiteSpace=wrap;html=1;" parent="1" vertex="1">
          <mxGeometry x="1180" y="550" width="80" height="40" as="geometry" />
        </mxCell>
        <mxCell id="GnKGV7IZCZq4mpfxTUD4-120" style="edgeStyle=orthogonalEdgeStyle;rounded=0;orthogonalLoop=1;jettySize=auto;html=1;exitX=0.25;exitY=0;exitDx=0;exitDy=0;entryX=0.25;entryY=0;entryDx=0;entryDy=0;" parent="1" target="GnKGV7IZCZq4mpfxTUD4-121" edge="1">
          <mxGeometry relative="1" as="geometry">
            <mxPoint x="1345" y="240" as="sourcePoint" />
          </mxGeometry>
        </mxCell>
        <mxCell id="GnKGV7IZCZq4mpfxTUD4-121" value="RegRead&lt;br&gt;Proxy" style="rounded=0;whiteSpace=wrap;html=1;fillColor=#dae8fc;strokeColor=#6c8ebf;" parent="1" vertex="1">
          <mxGeometry x="1330" y="350" width="60" height="80" as="geometry" />
        </mxCell>
        <mxCell id="GnKGV7IZCZq4mpfxTUD4-122" style="edgeStyle=orthogonalEdgeStyle;rounded=0;orthogonalLoop=1;jettySize=auto;html=1;exitX=0.25;exitY=0;exitDx=0;exitDy=0;entryX=0.25;entryY=0;entryDx=0;entryDy=0;" parent="1" target="GnKGV7IZCZq4mpfxTUD4-123" edge="1">
          <mxGeometry relative="1" as="geometry">
            <mxPoint x="1405" y="240" as="sourcePoint" />
          </mxGeometry>
        </mxCell>
        <mxCell id="GnKGV7IZCZq4mpfxTUD4-123" value="CP0Read&lt;br&gt;Proxy" style="rounded=0;whiteSpace=wrap;html=1;" parent="1" vertex="1">
          <mxGeometry x="1390" y="440" width="60" height="80" as="geometry" />
        </mxCell>
        <mxCell id="GnKGV7IZCZq4mpfxTUD4-124" value="HILORead&lt;br&gt;Proxy" style="rounded=0;whiteSpace=wrap;html=1;" parent="1" vertex="1">
          <mxGeometry x="1450" y="530" width="60" height="80" as="geometry" />
        </mxCell>
        <mxCell id="GnKGV7IZCZq4mpfxTUD4-125" style="edgeStyle=orthogonalEdgeStyle;rounded=0;orthogonalLoop=1;jettySize=auto;html=1;exitX=0.5;exitY=0;exitDx=0;exitDy=0;entryX=0.5;entryY=0;entryDx=0;entryDy=0;jumpStyle=arc;" parent="1" target="GnKGV7IZCZq4mpfxTUD4-121" edge="1">
          <mxGeometry relative="1" as="geometry">
            <mxPoint x="1360" y="230" as="sourcePoint" />
          </mxGeometry>
        </mxCell>
        <mxCell id="GnKGV7IZCZq4mpfxTUD4-126" style="edgeStyle=orthogonalEdgeStyle;rounded=0;orthogonalLoop=1;jettySize=auto;html=1;exitX=0.5;exitY=0;exitDx=0;exitDy=0;entryX=0.5;entryY=0;entryDx=0;entryDy=0;jumpStyle=arc;" parent="1" target="GnKGV7IZCZq4mpfxTUD4-123" edge="1">
          <mxGeometry relative="1" as="geometry">
            <mxPoint x="1420" y="230" as="sourcePoint" />
          </mxGeometry>
        </mxCell>
        <mxCell id="GnKGV7IZCZq4mpfxTUD4-127" style="edgeStyle=orthogonalEdgeStyle;rounded=0;orthogonalLoop=1;jettySize=auto;html=1;exitX=0.75;exitY=0;exitDx=0;exitDy=0;jumpStyle=arc;entryX=0.5;entryY=0;entryDx=0;entryDy=0;fillColor=#f8cecc;strokeColor=#b85450;" parent="1" source="GnKGV7IZCZq4mpfxTUD4-121" target="GnKGV7IZCZq4mpfxTUD4-130" edge="1">
          <mxGeometry relative="1" as="geometry">
            <Array as="points">
              <mxPoint x="1375" y="220" />
              <mxPoint x="580" y="220" />
            </Array>
            <mxPoint x="620" y="220" as="targetPoint" />
          </mxGeometry>
        </mxCell>
        <mxCell id="GnKGV7IZCZq4mpfxTUD4-128" style="edgeStyle=orthogonalEdgeStyle;rounded=0;orthogonalLoop=1;jettySize=auto;html=1;entryX=0.75;entryY=0;entryDx=0;entryDy=0;jumpStyle=arc;" parent="1" target="GnKGV7IZCZq4mpfxTUD4-95" edge="1">
          <mxGeometry relative="1" as="geometry">
            <Array as="points">
              <mxPoint x="730" y="210" />
            </Array>
            <mxPoint x="1020" y="210" as="sourcePoint" />
          </mxGeometry>
        </mxCell>
        <mxCell id="GnKGV7IZCZq4mpfxTUD4-129" style="edgeStyle=orthogonalEdgeStyle;rounded=0;orthogonalLoop=1;jettySize=auto;html=1;entryX=0.5;entryY=0;entryDx=0;entryDy=0;jumpStyle=arc;" parent="1" target="GnKGV7IZCZq4mpfxTUD4-113" edge="1">
          <mxGeometry relative="1" as="geometry">
            <mxPoint x="1020" y="210" as="sourcePoint" />
          </mxGeometry>
        </mxCell>
        <mxCell id="GnKGV7IZCZq4mpfxTUD4-130" value="&lt;blockquote style=&quot;margin: 0 0 0 40px ; border: none ; padding: 0px&quot;&gt;&lt;/blockquote&gt;" style="rounded=0;whiteSpace=wrap;html=1;align=left;" parent="1" vertex="1">
          <mxGeometry x="500" y="290" width="160" height="360" as="geometry" />
        </mxCell>
        <mxCell id="GnKGV7IZCZq4mpfxTUD4-131" value="OperandGen" style="rounded=0;whiteSpace=wrap;html=1;fillColor=#dae8fc;strokeColor=#6c8ebf;" parent="1" vertex="1">
          <mxGeometry x="540" y="300" width="80" height="40" as="geometry" />
        </mxCell>
        <mxCell id="GnKGV7IZCZq4mpfxTUD4-132" value="CP0Gen" style="rounded=0;whiteSpace=wrap;html=1;" parent="1" vertex="1">
          <mxGeometry x="540" y="500" width="80" height="40" as="geometry" />
        </mxCell>
        <mxCell id="GnKGV7IZCZq4mpfxTUD4-133" value="ExceptionGen" style="rounded=0;whiteSpace=wrap;html=1;" parent="1" vertex="1">
          <mxGeometry x="540" y="550" width="80" height="40" as="geometry" />
        </mxCell>
        <mxCell id="GnKGV7IZCZq4mpfxTUD4-134" value="FunctGen" style="rounded=0;whiteSpace=wrap;html=1;fillColor=#dae8fc;strokeColor=#6c8ebf;" parent="1" vertex="1">
          <mxGeometry x="540" y="400" width="80" height="40" as="geometry" />
        </mxCell>
        <mxCell id="GnKGV7IZCZq4mpfxTUD4-135" value="MemGen" style="rounded=0;whiteSpace=wrap;html=1;" parent="1" vertex="1">
          <mxGeometry x="540" y="450" width="80" height="40" as="geometry" />
        </mxCell>
        <mxCell id="GnKGV7IZCZq4mpfxTUD4-136" value="BranchGen" style="rounded=0;whiteSpace=wrap;html=1;fillColor=#dae8fc;strokeColor=#6c8ebf;" parent="1" vertex="1">
          <mxGeometry x="540" y="600" width="80" height="40" as="geometry" />
        </mxCell>
        <mxCell id="GnKGV7IZCZq4mpfxTUD4-137" value="RegGen" style="rounded=0;whiteSpace=wrap;html=1;fillColor=#dae8fc;strokeColor=#6c8ebf;" parent="1" vertex="1">
          <mxGeometry x="540" y="350" width="80" height="40" as="geometry" />
        </mxCell>
        <mxCell id="GnKGV7IZCZq4mpfxTUD4-138" style="edgeStyle=orthogonalEdgeStyle;rounded=0;orthogonalLoop=1;jettySize=auto;html=1;exitX=0.5;exitY=1;exitDx=0;exitDy=0;" parent="1" source="GnKGV7IZCZq4mpfxTUD4-130" target="GnKGV7IZCZq4mpfxTUD4-130" edge="1">
          <mxGeometry x="500" y="290" as="geometry" />
        </mxCell>
        <mxCell id="GnKGV7IZCZq4mpfxTUD4-139" value="" style="endArrow=none;html=1;entryX=0.75;entryY=0;entryDx=0;entryDy=0;rounded=0;jumpStyle=arc;" parent="1" target="GnKGV7IZCZq4mpfxTUD4-123" edge="1">
          <mxGeometry width="50" height="50" relative="1" as="geometry">
            <mxPoint x="1020" y="210" as="sourcePoint" />
            <mxPoint x="1240" y="430" as="targetPoint" />
            <Array as="points">
              <mxPoint x="1435" y="210" />
            </Array>
          </mxGeometry>
        </mxCell>
        <mxCell id="GnKGV7IZCZq4mpfxTUD4-141" style="edgeStyle=orthogonalEdgeStyle;rounded=0;orthogonalLoop=1;jettySize=auto;html=1;exitX=0.75;exitY=0;exitDx=0;exitDy=0;entryX=1;entryY=0.25;entryDx=0;entryDy=0;jumpStyle=arc;" parent="1" source="GnKGV7IZCZq4mpfxTUD4-113" target="GnKGV7IZCZq4mpfxTUD4-117" edge="1">
          <mxGeometry relative="1" as="geometry">
            <Array as="points">
              <mxPoint x="1040" y="270" />
              <mxPoint x="1290" y="270" />
              <mxPoint x="1290" y="470" />
            </Array>
          </mxGeometry>
        </mxCell>
        <mxCell id="GnKGV7IZCZq4mpfxTUD4-142" style="edgeStyle=orthogonalEdgeStyle;rounded=0;jumpStyle=arc;orthogonalLoop=1;jettySize=auto;html=1;entryX=0.5;entryY=0;entryDx=0;entryDy=0;endFill=1;fillColor=#f8cecc;strokeColor=#b85450;exitX=0.25;exitY=0;exitDx=0;exitDy=0;" parent="1" target="GnKGV7IZCZq4mpfxTUD4-115" edge="1" source="GnKGV7IZCZq4mpfxTUD4-130">
          <mxGeometry relative="1" as="geometry">
            <mxPoint x="550" y="290" as="sourcePoint" />
            <Array as="points">
              <mxPoint x="540" y="200" />
              <mxPoint x="1220" y="200" />
            </Array>
          </mxGeometry>
        </mxCell>
      </root>
    </mxGraphModel>
  </diagram>
</mxfile>
